<svg xmlns="http://www.w3.org/2000/svg" xmlns:xlink="http://www.w3.org/1999/xlink" width="500" zoomAndPan="magnify" viewBox="0 0 375 374.999991" height="500" preserveAspectRatio="xMidYMid meet" version="1.0"><defs><g/><clipPath id="f98eb36c36"><path d="M 121.246094 90.339844 L 253.996094 90.339844 L 253.996094 215.589844 L 121.246094 215.589844 Z M 121.246094 90.339844 " clip-rule="nonzero"/></clipPath></defs><rect x="-37.5" width="450" fill="#ffffff" y="-37.499999" height="449.999989" fill-opacity="1"/><rect x="-37.5" width="450" fill="#242452" y="-37.499999" height="449.999989" fill-opacity="1"/><g clip-path="url(#f98eb36c36)"><path fill="#ffffff" d="M 183.878906 90.339844 C 218.480469 90.339844 246.519531 118.375 246.519531 152.960938 C 246.519531 161.390625 244.851562 169.410156 241.835938 176.738281 L 231.578125 167.671875 C 233.015625 163.023438 233.777344 158.089844 233.777344 152.960938 C 233.777344 125.421875 211.4375 103.078125 183.878906 103.078125 C 156.339844 103.078125 133.996094 125.421875 133.996094 152.960938 C 133.996094 153.386719 133.996094 153.8125 134.015625 154.238281 L 134.015625 154.273438 C 134.015625 154.683594 134.035156 155.089844 134.050781 155.5 L 134.070312 155.570312 C 134.085938 155.976562 134.105469 156.367188 134.140625 156.777344 L 134.140625 156.847656 C 134.175781 157.253906 134.210938 157.644531 134.246094 158.054688 L 134.246094 158.089844 C 134.300781 158.496094 134.335938 158.90625 134.386719 159.3125 L 134.386719 159.332031 C 134.441406 159.738281 134.511719 160.148438 134.566406 160.539062 L 134.566406 160.574219 C 134.636719 160.980469 134.691406 161.371094 134.761719 161.761719 L 134.777344 161.832031 C 134.851562 162.222656 134.921875 162.597656 134.992188 162.988281 L 135.027344 163.074219 C 135.097656 163.449219 135.1875 163.839844 135.277344 164.210938 L 135.277344 164.265625 C 135.363281 164.65625 135.46875 165.046875 135.558594 165.417969 L 135.558594 165.453125 C 135.664062 165.824219 135.773438 166.214844 135.878906 166.605469 L 135.898438 166.640625 C 136.003906 167.015625 136.109375 167.386719 136.234375 167.761719 L 136.25 167.832031 C 136.359375 168.203125 136.480469 168.578125 136.605469 168.929688 L 136.625 169.003906 C 136.75 169.375 136.890625 169.746094 137.015625 170.101562 L 137.03125 170.136719 C 137.15625 170.511719 137.296875 170.882812 137.441406 171.238281 L 137.457031 171.257812 L 137.457031 171.273438 C 137.601562 171.644531 137.761719 172.019531 137.902344 172.375 L 137.917969 172.390625 C 138.078125 172.765625 138.222656 173.117188 138.398438 173.472656 L 138.417969 173.527344 C 138.574219 173.882812 138.734375 174.21875 138.894531 174.574219 L 138.929688 174.628906 C 139.089844 174.980469 139.269531 175.320312 139.445312 175.675781 L 139.464844 175.691406 C 139.640625 176.046875 139.816406 176.382812 140.011719 176.738281 L 140.011719 176.757812 L 140.03125 176.773438 C 140.207031 177.113281 140.402344 177.449219 140.582031 177.769531 L 140.617188 177.820312 C 140.8125 178.160156 141.007812 178.496094 141.203125 178.816406 L 141.21875 178.851562 C 141.414062 179.152344 141.59375 179.4375 141.769531 179.738281 L 157.847656 165.507812 C 156.019531 161.726562 154.988281 157.46875 154.988281 152.960938 C 154.988281 147.371094 156.570312 142.152344 159.320312 137.734375 C 161.589844 134.082031 164.660156 130.976562 168.261719 128.648438 C 172.769531 125.757812 178.128906 124.070312 183.878906 124.070312 C 189.644531 124.070312 195.003906 125.757812 199.496094 128.648438 C 203.113281 130.976562 206.183594 134.082031 208.457031 137.734375 C 211.1875 142.152344 212.785156 147.371094 212.785156 152.960938 C 212.785156 157.46875 211.757812 161.726562 209.929688 165.507812 L 225.988281 179.738281 L 235.625 188.253906 L 253.742188 204.28125 L 245.292969 213.824219 L 227.40625 197.996094 L 217.84375 189.515625 L 201.980469 175.496094 L 192.203125 166.835938 C 195.945312 164.582031 198.714844 160.839844 199.671875 156.4375 C 199.921875 155.320312 200.042969 154.167969 200.042969 152.960938 C 200.042969 150.636719 199.546875 148.417969 198.660156 146.414062 C 196.867188 142.367188 193.460938 139.191406 189.253906 137.71875 C 187.570312 137.132812 185.761719 136.8125 183.878906 136.8125 C 181.996094 136.8125 180.207031 137.132812 178.519531 137.71875 C 174.3125 139.191406 170.90625 142.367188 169.113281 146.414062 C 168.226562 148.417969 167.730469 150.636719 167.730469 152.960938 C 167.730469 154.167969 167.855469 155.320312 168.105469 156.4375 C 169.0625 160.839844 171.832031 164.582031 175.574219 166.835938 L 165.777344 175.496094 L 149.933594 189.515625 L 150.144531 189.726562 L 150.214844 189.78125 C 150.570312 190.117188 150.945312 190.457031 151.335938 190.773438 L 151.40625 190.847656 C 151.582031 190.988281 151.742188 191.128906 151.921875 191.273438 L 151.972656 191.324219 C 152.363281 191.644531 152.753906 191.964844 153.144531 192.265625 L 153.214844 192.320312 C 153.605469 192.621094 154.015625 192.941406 154.421875 193.222656 L 154.476562 193.277344 C 154.671875 193.417969 154.867188 193.542969 155.042969 193.6875 L 155.097656 193.722656 C 155.503906 194.003906 155.914062 194.289062 156.320312 194.554688 L 156.445312 194.644531 C 156.621094 194.769531 156.800781 194.875 156.976562 195 L 157.066406 195.035156 C 157.261719 195.175781 157.472656 195.300781 157.6875 195.441406 L 157.757812 195.476562 C 157.9375 195.585938 158.132812 195.707031 158.328125 195.816406 L 158.433594 195.886719 C 158.628906 196.011719 158.824219 196.117188 159.019531 196.242188 L 159.070312 196.257812 C 159.285156 196.382812 159.496094 196.507812 159.710938 196.613281 L 159.816406 196.683594 C 160.011719 196.789062 160.1875 196.878906 160.367188 196.984375 L 160.492188 197.039062 C 160.933594 197.269531 161.359375 197.5 161.804688 197.714844 L 161.929688 197.785156 C 162.125 197.875 162.300781 197.960938 162.496094 198.050781 L 162.601562 198.105469 C 162.832031 198.210938 163.046875 198.316406 163.277344 198.421875 L 163.367188 198.457031 C 163.542969 198.546875 163.738281 198.617188 163.933594 198.707031 L 164.09375 198.777344 C 164.304688 198.867188 164.519531 198.957031 164.730469 199.042969 L 164.769531 199.0625 C 164.980469 199.152344 165.210938 199.238281 165.441406 199.328125 L 165.601562 199.398438 C 165.777344 199.46875 165.957031 199.542969 166.132812 199.613281 L 166.292969 199.664062 C 166.753906 199.84375 167.214844 200.003906 167.679688 200.164062 L 167.835938 200.214844 C 168.03125 200.285156 168.226562 200.359375 168.441406 200.429688 L 168.53125 200.445312 C 168.761719 200.535156 168.992188 200.605469 169.222656 200.675781 L 169.398438 200.730469 C 169.578125 200.785156 169.753906 200.835938 169.929688 200.890625 L 170.144531 200.941406 C 170.355469 200.996094 170.589844 201.066406 170.800781 201.121094 L 170.835938 201.136719 C 171.066406 201.191406 171.28125 201.261719 171.511719 201.316406 L 171.757812 201.367188 L 172.257812 201.492188 L 172.46875 201.546875 C 172.699219 201.601562 172.929688 201.652344 173.160156 201.707031 L 173.304688 201.742188 C 173.5 201.777344 173.691406 201.8125 173.886719 201.867188 L 174.082031 201.902344 C 174.296875 201.9375 174.507812 201.972656 174.722656 202.027344 L 174.8125 202.042969 C 175.058594 202.078125 175.308594 202.132812 175.554688 202.167969 L 175.699219 202.183594 C 175.894531 202.222656 176.089844 202.257812 176.285156 202.292969 L 176.496094 202.308594 C 176.726562 202.34375 176.957031 202.378906 177.1875 202.417969 L 177.242188 202.417969 C 177.472656 202.453125 177.722656 202.488281 177.953125 202.503906 L 178.164062 202.539062 C 178.359375 202.558594 178.539062 202.574219 178.734375 202.59375 L 178.929688 202.609375 C 179.175781 202.648438 179.425781 202.664062 179.65625 202.683594 L 179.796875 202.699219 C 180.011719 202.71875 180.207031 202.71875 180.417969 202.734375 L 180.632812 202.753906 C 180.84375 202.769531 181.058594 202.789062 181.269531 202.789062 L 181.394531 202.804688 C 181.644531 202.804688 181.890625 202.824219 182.140625 202.824219 L 182.316406 202.84375 C 182.511719 202.84375 182.726562 202.84375 182.921875 202.84375 L 183.132812 202.859375 C 183.382812 202.859375 183.628906 202.859375 183.878906 202.859375 C 192.308594 202.859375 200.222656 200.785156 207.179688 197.09375 L 217.222656 205.984375 C 207.570312 212.070312 196.140625 215.601562 183.878906 215.601562 C 183.613281 215.601562 183.363281 215.601562 183.097656 215.601562 C 182.832031 215.582031 182.566406 215.582031 182.300781 215.582031 C 182.035156 215.566406 181.785156 215.566406 181.519531 215.546875 C 181.253906 215.546875 180.988281 215.53125 180.738281 215.511719 C 180.472656 215.511719 180.207031 215.492188 179.957031 215.476562 C 179.691406 215.457031 179.425781 215.441406 179.175781 215.421875 C 178.910156 215.40625 178.660156 215.386719 178.394531 215.351562 C 178.128906 215.335938 177.882812 215.316406 177.613281 215.28125 C 177.101562 215.226562 176.585938 215.175781 176.089844 215.121094 C 162.285156 213.398438 149.863281 207.191406 140.351562 197.996094 C 137.296875 195.050781 134.546875 191.785156 132.132812 188.253906 L 131.921875 187.9375 C 131.65625 187.546875 131.40625 187.15625 131.140625 186.765625 L 131.085938 186.675781 C 130.839844 186.269531 130.589844 185.878906 130.34375 185.46875 L 130.308594 185.433594 C 130.058594 185.007812 129.828125 184.601562 129.578125 184.191406 L 129.527344 184.085938 C 129.296875 183.675781 129.046875 183.269531 128.835938 182.84375 L 128.796875 182.789062 C 128.566406 182.363281 128.335938 181.9375 128.125 181.511719 L 128.105469 181.460938 C 127.875 181.035156 127.664062 180.609375 127.449219 180.164062 L 127.414062 180.074219 C 127.203125 179.632812 126.988281 179.1875 126.792969 178.746094 L 126.777344 178.726562 C 126.582031 178.28125 126.386719 177.839844 126.191406 177.394531 L 126.171875 177.308594 C 125.976562 176.863281 125.800781 176.417969 125.621094 175.976562 L 125.585938 175.886719 C 125.410156 175.425781 125.230469 174.964844 125.054688 174.503906 L 125.054688 174.484375 C 124.875 174.023438 124.71875 173.582031 124.574219 173.117188 L 124.539062 173.011719 C 124.378906 172.550781 124.21875 172.070312 124.078125 171.609375 L 124.0625 171.558594 C 123.917969 171.078125 123.777344 170.597656 123.636719 170.121094 L 123.636719 170.101562 C 123.492188 169.625 123.367188 169.144531 123.246094 168.664062 L 123.226562 168.578125 C 123.101562 168.097656 122.976562 167.617188 122.871094 167.140625 L 122.855469 167.066406 C 122.746094 166.589844 122.640625 166.109375 122.535156 165.613281 L 122.535156 165.578125 C 122.429688 165.082031 122.339844 164.601562 122.25 164.105469 L 122.234375 164 C 122.144531 163.5 122.054688 163.023438 121.984375 162.527344 L 121.964844 162.472656 C 121.894531 161.976562 121.824219 161.476562 121.773438 160.980469 L 121.753906 160.910156 C 121.699219 160.414062 121.628906 159.917969 121.59375 159.421875 L 121.578125 159.3125 C 121.523438 158.800781 121.488281 158.300781 121.433594 157.789062 L 121.433594 157.769531 C 121.398438 157.253906 121.363281 156.757812 121.347656 156.242188 L 121.347656 156.15625 C 121.308594 155.65625 121.292969 155.144531 121.273438 154.628906 L 121.273438 154.523438 C 121.257812 154.007812 121.257812 153.492188 121.257812 152.960938 C 121.257812 118.375 149.292969 90.339844 183.878906 90.339844 Z M 183.878906 90.339844 " fill-opacity="1" fill-rule="evenodd"/></g><g fill="#ffffff" fill-opacity="1"><g transform="translate(63.36023, 246.318147)"><g><path d="M 17.578125 4.75 C 16.722656 4.75 15.976562 4.582031 15.34375 4.25 C 14.71875 3.914062 14.128906 3.398438 13.578125 2.703125 C 13.023438 2.015625 12.441406 1.140625 11.828125 0.078125 C 11.472656 0.160156 11.109375 0.222656 10.734375 0.265625 C 10.359375 0.316406 9.972656 0.34375 9.578125 0.34375 C 7.640625 0.34375 6.046875 -0.0390625 4.796875 -0.8125 C 3.546875 -1.582031 2.613281 -2.628906 2 -3.953125 C 1.394531 -5.285156 1.09375 -6.773438 1.09375 -8.421875 C 1.09375 -10.078125 1.320312 -11.492188 1.78125 -12.671875 C 2.238281 -13.859375 2.875 -14.832031 3.6875 -15.59375 C 4.5 -16.363281 5.429688 -16.929688 6.484375 -17.296875 C 7.546875 -17.660156 8.664062 -17.84375 9.84375 -17.84375 C 11.394531 -17.84375 12.789062 -17.519531 14.03125 -16.875 C 15.28125 -16.238281 16.265625 -15.28125 16.984375 -14 C 17.710938 -12.726562 18.078125 -11.128906 18.078125 -9.203125 C 18.078125 -7.484375 17.773438 -5.910156 17.171875 -4.484375 C 16.578125 -3.054688 15.6875 -1.925781 14.5 -1.09375 C 15.0625 -0.300781 15.53125 0.320312 15.90625 0.78125 C 16.28125 1.238281 16.671875 1.566406 17.078125 1.765625 C 17.492188 1.972656 18.035156 2.078125 18.703125 2.078125 C 19.179688 2.078125 19.640625 1.972656 20.078125 1.765625 C 20.523438 1.566406 21.039062 1.257812 21.625 0.84375 L 22.375 1.921875 C 21.65625 2.828125 20.90625 3.523438 20.125 4.015625 C 19.351562 4.503906 18.503906 4.75 17.578125 4.75 Z M 9.796875 -1.75 C 9.960938 -1.75 10.125 -1.753906 10.28125 -1.765625 C 10.445312 -1.785156 10.601562 -1.8125 10.75 -1.84375 C 10.300781 -2.632812 9.847656 -3.265625 9.390625 -3.734375 C 8.929688 -4.210938 8.382812 -4.453125 7.75 -4.453125 C 7.164062 -4.453125 6.59375 -4.289062 6.03125 -3.96875 C 6.40625 -3.269531 6.90625 -2.722656 7.53125 -2.328125 C 8.15625 -1.941406 8.910156 -1.75 9.796875 -1.75 Z M 12.96875 -3.328125 C 13.375 -3.910156 13.679688 -4.644531 13.890625 -5.53125 C 14.109375 -6.425781 14.21875 -7.5 14.21875 -8.75 C 14.21875 -10.144531 14.035156 -11.375 13.671875 -12.4375 C 13.304688 -13.5 12.769531 -14.320312 12.0625 -14.90625 C 11.351562 -15.488281 10.484375 -15.78125 9.453125 -15.78125 C 8.003906 -15.78125 6.898438 -15.207031 6.140625 -14.0625 C 5.378906 -12.914062 5 -11.203125 5 -8.921875 C 5 -8.304688 5.03125 -7.710938 5.09375 -7.140625 C 5.164062 -6.578125 5.257812 -6.054688 5.375 -5.578125 C 5.851562 -5.921875 6.332031 -6.1875 6.8125 -6.375 C 7.289062 -6.5625 7.753906 -6.65625 8.203125 -6.65625 C 9.203125 -6.65625 10.046875 -6.375 10.734375 -5.8125 C 11.429688 -5.25 12.175781 -4.421875 12.96875 -3.328125 Z M 12.96875 -3.328125 "/></g></g></g><g fill="#ffffff" fill-opacity="1"><g transform="translate(82.682171, 246.318147)"><g><path d="M 10.046875 0.34375 C 8.316406 0.34375 6.941406 0.0507812 5.921875 -0.53125 C 4.910156 -1.113281 4.179688 -1.914062 3.734375 -2.9375 C 3.296875 -3.957031 3.078125 -5.144531 3.078125 -6.5 L 3.078125 -14.578125 C 3.078125 -14.960938 3.035156 -15.238281 2.953125 -15.40625 C 2.867188 -15.570312 2.632812 -15.6875 2.25 -15.75 L 0.90625 -15.96875 L 0.90625 -17.5 L 8.921875 -17.5 L 8.921875 -15.96875 L 7.53125 -15.75 C 7.175781 -15.6875 6.960938 -15.550781 6.890625 -15.34375 C 6.816406 -15.144531 6.78125 -14.851562 6.78125 -14.46875 L 6.78125 -6.84375 C 6.78125 -5.832031 6.867188 -4.960938 7.046875 -4.234375 C 7.234375 -3.515625 7.59375 -2.960938 8.125 -2.578125 C 8.65625 -2.191406 9.457031 -2 10.53125 -2 C 11.613281 -2 12.429688 -2.222656 12.984375 -2.671875 C 13.546875 -3.117188 13.925781 -3.707031 14.125 -4.4375 C 14.320312 -5.175781 14.421875 -5.972656 14.421875 -6.828125 L 14.421875 -14.578125 C 14.421875 -14.960938 14.378906 -15.238281 14.296875 -15.40625 C 14.210938 -15.570312 13.976562 -15.6875 13.59375 -15.75 L 12.28125 -15.96875 L 12.28125 -17.5 L 18.953125 -17.5 L 18.953125 -15.96875 L 17.578125 -15.75 C 17.210938 -15.6875 16.988281 -15.550781 16.90625 -15.34375 C 16.832031 -15.144531 16.796875 -14.851562 16.796875 -14.46875 L 16.796875 -6.78125 C 16.796875 -4.320312 16.203125 -2.519531 15.015625 -1.375 C 13.835938 -0.226562 12.179688 0.34375 10.046875 0.34375 Z M 10.046875 0.34375 "/></g></g></g><g fill="#ffffff" fill-opacity="1"><g transform="translate(102.429042, 246.318147)"><g><path d="M 0.296875 0 L 0.296875 -1.5 L 1.46875 -1.671875 C 1.769531 -1.742188 1.988281 -1.875 2.125 -2.0625 C 2.257812 -2.25 2.410156 -2.578125 2.578125 -3.046875 L 7.78125 -17.5 L 10.96875 -17.5 L 16.125 -2.96875 C 16.257812 -2.570312 16.390625 -2.273438 16.515625 -2.078125 C 16.640625 -1.878906 16.867188 -1.742188 17.203125 -1.671875 L 18.203125 -1.5 L 18.203125 0 L 10.46875 0 L 10.46875 -1.5 L 11.625 -1.671875 C 11.957031 -1.722656 12.148438 -1.835938 12.203125 -2.015625 C 12.265625 -2.203125 12.226562 -2.503906 12.09375 -2.921875 L 11.328125 -5.375 L 5.78125 -5.375 L 5 -3.03125 C 4.863281 -2.625 4.832031 -2.320312 4.90625 -2.125 C 4.988281 -1.925781 5.210938 -1.785156 5.578125 -1.703125 L 6.671875 -1.5 L 6.671875 0 Z M 6.296875 -7.078125 L 10.828125 -7.078125 L 8.703125 -13.796875 L 8.59375 -13.796875 Z M 6.296875 -7.078125 "/></g></g></g><g fill="#ffffff" fill-opacity="1"><g transform="translate(120.926115, 246.318147)"><g><path d="M 1.25 0 L 1.25 -1.5 L 2.59375 -1.75 C 2.945312 -1.8125 3.160156 -1.925781 3.234375 -2.09375 C 3.304688 -2.257812 3.34375 -2.5625 3.34375 -3 L 3.34375 -14.59375 C 3.34375 -14.976562 3.304688 -15.25 3.234375 -15.40625 C 3.160156 -15.570312 2.941406 -15.6875 2.578125 -15.75 L 1.25 -16 L 1.25 -17.5 L 7.203125 -17.5 L 15.125 -4.28125 L 15.203125 -4.28125 L 15.203125 -14.59375 C 15.203125 -14.976562 15.160156 -15.25 15.078125 -15.40625 C 15.003906 -15.570312 14.785156 -15.6875 14.421875 -15.75 L 13.09375 -16 L 13.09375 -17.5 L 19.546875 -17.5 L 19.546875 -16 L 18.203125 -15.75 C 17.835938 -15.6875 17.617188 -15.566406 17.546875 -15.390625 C 17.484375 -15.210938 17.453125 -14.914062 17.453125 -14.5 L 17.453125 0 L 13.625 0 L 5.703125 -13.21875 L 5.59375 -13.21875 L 5.59375 -2.90625 C 5.59375 -2.519531 5.632812 -2.25 5.71875 -2.09375 C 5.800781 -1.945312 6.03125 -1.832031 6.40625 -1.75 L 7.703125 -1.5 L 7.703125 0 Z M 1.25 0 "/></g></g></g><g fill="#ffffff" fill-opacity="1"><g transform="translate(141.722821, 246.318147)"><g><path d="M 4.90625 0 L 4.90625 -1.53125 L 6.40625 -1.78125 C 6.769531 -1.820312 6.992188 -1.957031 7.078125 -2.1875 C 7.171875 -2.414062 7.21875 -2.710938 7.21875 -3.078125 L 7.21875 -15.75 L 6.59375 -15.75 C 5.976562 -15.75 5.46875 -15.703125 5.0625 -15.609375 C 4.65625 -15.515625 4.3125 -15.332031 4.03125 -15.0625 C 3.757812 -14.800781 3.507812 -14.421875 3.28125 -13.921875 C 3.0625 -13.421875 2.816406 -12.765625 2.546875 -11.953125 L 0.671875 -12.375 L 1.671875 -17.5 L 16.546875 -17.5 L 17.546875 -12.453125 L 15.65625 -12.03125 C 15.320312 -13.0625 15.019531 -13.84375 14.75 -14.375 C 14.476562 -14.90625 14.140625 -15.265625 13.734375 -15.453125 C 13.328125 -15.648438 12.734375 -15.75 11.953125 -15.75 L 10.921875 -15.75 L 10.921875 -2.96875 C 10.921875 -2.59375 10.96875 -2.316406 11.0625 -2.140625 C 11.164062 -1.960938 11.40625 -1.84375 11.78125 -1.78125 L 13.25 -1.53125 L 13.25 0 Z M 4.90625 0 "/></g></g></g><g fill="#ffffff" fill-opacity="1"><g transform="translate(159.944938, 246.318147)"><g><path d="M 10.046875 0.34375 C 8.316406 0.34375 6.941406 0.0507812 5.921875 -0.53125 C 4.910156 -1.113281 4.179688 -1.914062 3.734375 -2.9375 C 3.296875 -3.957031 3.078125 -5.144531 3.078125 -6.5 L 3.078125 -14.578125 C 3.078125 -14.960938 3.035156 -15.238281 2.953125 -15.40625 C 2.867188 -15.570312 2.632812 -15.6875 2.25 -15.75 L 0.90625 -15.96875 L 0.90625 -17.5 L 8.921875 -17.5 L 8.921875 -15.96875 L 7.53125 -15.75 C 7.175781 -15.6875 6.960938 -15.550781 6.890625 -15.34375 C 6.816406 -15.144531 6.78125 -14.851562 6.78125 -14.46875 L 6.78125 -6.84375 C 6.78125 -5.832031 6.867188 -4.960938 7.046875 -4.234375 C 7.234375 -3.515625 7.59375 -2.960938 8.125 -2.578125 C 8.65625 -2.191406 9.457031 -2 10.53125 -2 C 11.613281 -2 12.429688 -2.222656 12.984375 -2.671875 C 13.546875 -3.117188 13.925781 -3.707031 14.125 -4.4375 C 14.320312 -5.175781 14.421875 -5.972656 14.421875 -6.828125 L 14.421875 -14.578125 C 14.421875 -14.960938 14.378906 -15.238281 14.296875 -15.40625 C 14.210938 -15.570312 13.976562 -15.6875 13.59375 -15.75 L 12.28125 -15.96875 L 12.28125 -17.5 L 18.953125 -17.5 L 18.953125 -15.96875 L 17.578125 -15.75 C 17.210938 -15.6875 16.988281 -15.550781 16.90625 -15.34375 C 16.832031 -15.144531 16.796875 -14.851562 16.796875 -14.46875 L 16.796875 -6.78125 C 16.796875 -4.320312 16.203125 -2.519531 15.015625 -1.375 C 13.835938 -0.226562 12.179688 0.34375 10.046875 0.34375 Z M 10.046875 0.34375 "/></g></g></g><g fill="#ffffff" fill-opacity="1"><g transform="translate(179.691809, 246.318147)"><g><path d="M 1.046875 0 L 1.046875 -1.5 L 2.375 -1.75 C 2.726562 -1.8125 2.941406 -1.914062 3.015625 -2.0625 C 3.085938 -2.207031 3.132812 -2.460938 3.15625 -2.828125 L 3.90625 -14.546875 C 3.9375 -14.929688 3.898438 -15.207031 3.796875 -15.375 C 3.703125 -15.539062 3.46875 -15.65625 3.09375 -15.71875 L 1.703125 -16 L 1.703125 -17.5 L 8.59375 -17.5 L 12.09375 -6.828125 L 12.171875 -6.828125 L 16.046875 -17.5 L 22.53125 -17.5 L 22.53125 -16 L 21.15625 -15.71875 C 20.800781 -15.65625 20.585938 -15.523438 20.515625 -15.328125 C 20.441406 -15.128906 20.410156 -14.835938 20.421875 -14.453125 L 21.15625 -2.921875 C 21.1875 -2.535156 21.234375 -2.257812 21.296875 -2.09375 C 21.367188 -1.925781 21.585938 -1.8125 21.953125 -1.75 L 23.25 -1.5 L 23.25 0 L 15.28125 0 L 15.28125 -1.5 L 16.703125 -1.78125 C 17.035156 -1.863281 17.238281 -1.988281 17.3125 -2.15625 C 17.382812 -2.320312 17.40625 -2.628906 17.375 -3.078125 L 16.796875 -13.90625 L 16.71875 -13.90625 L 12.65625 -2.828125 L 9.828125 -2.828125 L 6.078125 -13.71875 L 5.96875 -13.71875 L 5.40625 -2.953125 C 5.382812 -2.566406 5.410156 -2.285156 5.484375 -2.109375 C 5.554688 -1.929688 5.78125 -1.8125 6.15625 -1.75 L 7.5 -1.5 L 7.5 0 Z M 1.046875 0 "/></g></g></g><g fill="#ffffff" fill-opacity="1"><g transform="translate(203.763001, 246.318147)"><g/></g></g><g fill="#ffffff" fill-opacity="1"><g transform="translate(208.262292, 246.318147)"><g><path d="M 1.28125 0 L 1.28125 -1.5 L 2.59375 -1.71875 C 2.96875 -1.789062 3.191406 -1.929688 3.265625 -2.140625 C 3.335938 -2.347656 3.375 -2.632812 3.375 -3 L 3.375 -14.59375 C 3.375 -14.976562 3.332031 -15.253906 3.25 -15.421875 C 3.164062 -15.585938 2.929688 -15.707031 2.546875 -15.78125 L 1.28125 -16 L 1.28125 -17.5 L 8.75 -17.5 C 10.019531 -17.5 11.160156 -17.320312 12.171875 -16.96875 C 13.191406 -16.625 13.992188 -16.066406 14.578125 -15.296875 C 15.171875 -14.535156 15.46875 -13.507812 15.46875 -12.21875 C 15.46875 -11.175781 15.273438 -10.296875 14.890625 -9.578125 C 14.515625 -8.859375 14.015625 -8.285156 13.390625 -7.859375 C 12.773438 -7.429688 12.101562 -7.125 11.375 -6.9375 C 10.65625 -6.757812 9.957031 -6.671875 9.28125 -6.671875 C 8.8125 -6.671875 8.347656 -6.6875 7.890625 -6.71875 C 7.441406 -6.757812 7.160156 -6.785156 7.046875 -6.796875 L 7.046875 -2.90625 C 7.046875 -2.488281 7.097656 -2.1875 7.203125 -2 C 7.316406 -1.8125 7.570312 -1.695312 7.96875 -1.65625 L 9.71875 -1.453125 L 9.71875 0 Z M 8.078125 -8.421875 C 9.304688 -8.421875 10.203125 -8.800781 10.765625 -9.5625 C 11.335938 -10.332031 11.625 -11.28125 11.625 -12.40625 C 11.625 -13.4375 11.359375 -14.25 10.828125 -14.84375 C 10.296875 -15.445312 9.445312 -15.75 8.28125 -15.75 L 7.078125 -15.75 L 7.078125 -8.46875 C 7.191406 -8.457031 7.320312 -8.445312 7.46875 -8.4375 C 7.625 -8.425781 7.828125 -8.421875 8.078125 -8.421875 Z M 8.078125 -8.421875 "/></g></g></g><g fill="#ffffff" fill-opacity="1"><g transform="translate(224.359745, 246.318147)"><g><path d="M 1.25 0 L 1.25 -1.5 L 2.453125 -1.71875 C 2.765625 -1.789062 2.96875 -1.90625 3.0625 -2.0625 C 3.164062 -2.21875 3.21875 -2.53125 3.21875 -3 L 3.21875 -14.59375 C 3.21875 -15.03125 3.164062 -15.316406 3.0625 -15.453125 C 2.96875 -15.597656 2.75 -15.707031 2.40625 -15.78125 L 1.25 -16 L 1.25 -17.5 L 13.625 -17.5 L 14.578125 -13.296875 L 12.953125 -12.875 C 12.671875 -13.675781 12.382812 -14.285156 12.09375 -14.703125 C 11.800781 -15.117188 11.4375 -15.394531 11 -15.53125 C 10.5625 -15.675781 9.96875 -15.75 9.21875 -15.75 L 6.921875 -15.75 L 6.921875 -9.78125 L 8.203125 -9.78125 C 8.835938 -9.78125 9.289062 -9.8125 9.5625 -9.875 C 9.832031 -9.9375 10.03125 -10.113281 10.15625 -10.40625 C 10.28125 -10.695312 10.40625 -11.175781 10.53125 -11.84375 L 11.96875 -12.03125 L 11.96875 -6.203125 L 10.53125 -5.953125 C 10.457031 -6.566406 10.363281 -7.023438 10.25 -7.328125 C 10.132812 -7.628906 9.953125 -7.828125 9.703125 -7.921875 C 9.460938 -8.023438 9.101562 -8.078125 8.625 -8.078125 L 6.921875 -8.078125 L 6.921875 -1.75 L 9.875 -1.75 C 10.707031 -1.75 11.34375 -1.816406 11.78125 -1.953125 C 12.226562 -2.085938 12.570312 -2.363281 12.8125 -2.78125 C 13.050781 -3.195312 13.28125 -3.835938 13.5 -4.703125 L 15.21875 -4.703125 L 14.625 0 Z M 1.25 0 "/></g></g></g><g fill="#ffffff" fill-opacity="1"><g transform="translate(240.357211, 246.318147)"><g><path d="M 0.296875 0 L 0.296875 -1.5 L 1.46875 -1.671875 C 1.769531 -1.742188 1.988281 -1.875 2.125 -2.0625 C 2.257812 -2.25 2.410156 -2.578125 2.578125 -3.046875 L 7.78125 -17.5 L 10.96875 -17.5 L 16.125 -2.96875 C 16.257812 -2.570312 16.390625 -2.273438 16.515625 -2.078125 C 16.640625 -1.878906 16.867188 -1.742188 17.203125 -1.671875 L 18.203125 -1.5 L 18.203125 0 L 10.46875 0 L 10.46875 -1.5 L 11.625 -1.671875 C 11.957031 -1.722656 12.148438 -1.835938 12.203125 -2.015625 C 12.265625 -2.203125 12.226562 -2.503906 12.09375 -2.921875 L 11.328125 -5.375 L 5.78125 -5.375 L 5 -3.03125 C 4.863281 -2.625 4.832031 -2.320312 4.90625 -2.125 C 4.988281 -1.925781 5.210938 -1.785156 5.578125 -1.703125 L 6.671875 -1.5 L 6.671875 0 Z M 6.296875 -7.078125 L 10.828125 -7.078125 L 8.703125 -13.796875 L 8.59375 -13.796875 Z M 6.296875 -7.078125 "/></g></g></g><g fill="#ffffff" fill-opacity="1"><g transform="translate(258.854284, 246.318147)"><g><path d="M 16.71875 0.34375 C 16.070312 0.34375 15.394531 0.195312 14.6875 -0.09375 C 13.976562 -0.394531 13.320312 -1.03125 12.71875 -2 L 9.171875 -7.71875 L 7.15625 -5.671875 L 7.15625 -2.921875 C 7.15625 -2.535156 7.171875 -2.257812 7.203125 -2.09375 C 7.234375 -1.925781 7.429688 -1.8125 7.796875 -1.75 L 9.21875 -1.5 L 9.21875 0 L 1.25 0 L 1.25 -1.5 L 2.671875 -1.75 C 3.035156 -1.8125 3.253906 -1.925781 3.328125 -2.09375 C 3.410156 -2.257812 3.453125 -2.53125 3.453125 -2.90625 L 3.453125 -14.578125 C 3.453125 -14.960938 3.414062 -15.238281 3.34375 -15.40625 C 3.28125 -15.570312 3.054688 -15.6875 2.671875 -15.75 L 1.25 -16 L 1.25 -17.5 L 9.375 -17.5 L 9.375 -16 L 7.84375 -15.71875 C 7.5 -15.65625 7.296875 -15.523438 7.234375 -15.328125 C 7.179688 -15.140625 7.15625 -14.851562 7.15625 -14.46875 L 7.15625 -8.328125 L 13.28125 -14.625 C 13.539062 -14.957031 13.628906 -15.226562 13.546875 -15.4375 C 13.460938 -15.644531 13.28125 -15.765625 13 -15.796875 L 11.796875 -15.96875 L 12.046875 -17.5 L 18.375 -17.5 L 18.375 -15.953125 L 17.546875 -15.78125 C 17.234375 -15.707031 16.984375 -15.59375 16.796875 -15.4375 C 16.617188 -15.289062 16.335938 -15.03125 15.953125 -14.65625 L 11.65625 -10.21875 L 15.703125 -3.875 C 16.085938 -3.289062 16.429688 -2.859375 16.734375 -2.578125 C 17.046875 -2.304688 17.335938 -2.128906 17.609375 -2.046875 C 17.890625 -1.960938 18.160156 -1.921875 18.421875 -1.921875 C 18.503906 -1.921875 18.632812 -1.9375 18.8125 -1.96875 C 19 -2.007812 19.203125 -2.0625 19.421875 -2.125 L 19.75 -0.703125 C 19.476562 -0.453125 19.082031 -0.21875 18.5625 0 C 18.050781 0.226562 17.4375 0.34375 16.71875 0.34375 Z M 16.71875 0.34375 "/></g></g></g><g fill="#ffffff" fill-opacity="1"><g transform="translate(278.276211, 246.318147)"><g/></g></g><g fill="#ffffff" fill-opacity="1"><g transform="translate(282.775502, 246.318147)"><g><path d="M 1.25 0 L 1.25 -1.5 L 2.53125 -1.71875 C 2.957031 -1.800781 3.21875 -1.910156 3.3125 -2.046875 C 3.40625 -2.179688 3.453125 -2.507812 3.453125 -3.03125 L 3.453125 -14.46875 C 3.453125 -14.988281 3.40625 -15.316406 3.3125 -15.453125 C 3.21875 -15.597656 2.957031 -15.707031 2.53125 -15.78125 L 1.25 -16 L 1.25 -17.5 L 9.375 -17.5 L 9.375 -16 L 7.953125 -15.75 C 7.585938 -15.6875 7.363281 -15.578125 7.28125 -15.421875 C 7.195312 -15.273438 7.15625 -14.96875 7.15625 -14.5 L 7.15625 -2.921875 C 7.15625 -2.503906 7.195312 -2.21875 7.28125 -2.0625 C 7.363281 -1.914062 7.585938 -1.8125 7.953125 -1.75 L 9.375 -1.5 L 9.375 0 Z M 1.25 0 "/></g></g></g><g fill="#ffffff" fill-opacity="1"><g transform="translate(293.398822, 246.318147)"><g><path d="M 4.90625 0 L 4.90625 -1.53125 L 6.40625 -1.78125 C 6.769531 -1.820312 6.992188 -1.957031 7.078125 -2.1875 C 7.171875 -2.414062 7.21875 -2.710938 7.21875 -3.078125 L 7.21875 -15.75 L 6.59375 -15.75 C 5.976562 -15.75 5.46875 -15.703125 5.0625 -15.609375 C 4.65625 -15.515625 4.3125 -15.332031 4.03125 -15.0625 C 3.757812 -14.800781 3.507812 -14.421875 3.28125 -13.921875 C 3.0625 -13.421875 2.816406 -12.765625 2.546875 -11.953125 L 0.671875 -12.375 L 1.671875 -17.5 L 16.546875 -17.5 L 17.546875 -12.453125 L 15.65625 -12.03125 C 15.320312 -13.0625 15.019531 -13.84375 14.75 -14.375 C 14.476562 -14.90625 14.140625 -15.265625 13.734375 -15.453125 C 13.328125 -15.648438 12.734375 -15.75 11.953125 -15.75 L 10.921875 -15.75 L 10.921875 -2.96875 C 10.921875 -2.59375 10.96875 -2.316406 11.0625 -2.140625 C 11.164062 -1.960938 11.40625 -1.84375 11.78125 -1.78125 L 13.25 -1.53125 L 13.25 0 Z M 4.90625 0 "/></g></g></g><g fill="#ffffff" fill-opacity="1"><g transform="translate(119.560405, 259.43178)"><g><path d="M 2.078125 -0.4375 L 3.78125 -0.4375 C 3.925781 -0.4375 4.046875 -0.457031 4.140625 -0.5 C 4.242188 -0.539062 4.328125 -0.59375 4.390625 -0.65625 C 4.453125 -0.71875 4.503906 -0.789062 4.546875 -0.875 C 4.585938 -0.96875 4.613281 -1.066406 4.625 -1.171875 L 4.6875 -1.546875 L 5.140625 -1.546875 L 5.09375 0 L 0.34375 0 L 0.34375 -0.375 L 0.453125 -0.375 C 0.546875 -0.375 0.632812 -0.378906 0.71875 -0.390625 C 0.8125 -0.398438 0.890625 -0.425781 0.953125 -0.46875 C 1.023438 -0.507812 1.078125 -0.566406 1.109375 -0.640625 C 1.148438 -0.722656 1.171875 -0.832031 1.171875 -0.96875 L 1.171875 -5.3125 C 1.171875 -5.457031 1.148438 -5.570312 1.109375 -5.65625 C 1.078125 -5.738281 1.023438 -5.800781 0.953125 -5.84375 C 0.890625 -5.882812 0.8125 -5.910156 0.71875 -5.921875 C 0.632812 -5.941406 0.546875 -5.953125 0.453125 -5.953125 L 0.34375 -5.953125 L 0.34375 -6.328125 L 4.796875 -6.328125 L 4.84375 -4.78125 L 4.390625 -4.78125 L 4.34375 -5.15625 C 4.332031 -5.25 4.304688 -5.335938 4.265625 -5.421875 C 4.234375 -5.515625 4.1875 -5.59375 4.125 -5.65625 C 4.070312 -5.726562 4 -5.785156 3.90625 -5.828125 C 3.8125 -5.867188 3.695312 -5.890625 3.5625 -5.890625 L 2.078125 -5.890625 L 2.078125 -3.53125 L 4.203125 -3.53125 L 4.203125 -3.09375 L 2.078125 -3.09375 Z M 2.078125 -0.4375 "/></g></g></g><g fill="#ffffff" fill-opacity="1"><g transform="translate(128.458853, 259.43178)"><g><path d="M 5.609375 0 L 5.609375 -0.375 L 5.640625 -0.375 C 5.734375 -0.375 5.816406 -0.378906 5.890625 -0.390625 C 5.972656 -0.398438 6.039062 -0.425781 6.09375 -0.46875 C 6.144531 -0.507812 6.1875 -0.566406 6.21875 -0.640625 C 6.25 -0.710938 6.269531 -0.8125 6.28125 -0.9375 L 6.28125 -5.65625 L 4.25 0 L 3.765625 0 L 1.71875 -5.640625 L 1.71875 -1.015625 C 1.71875 -0.867188 1.726562 -0.753906 1.75 -0.671875 C 1.78125 -0.585938 1.820312 -0.523438 1.875 -0.484375 C 1.9375 -0.441406 2.003906 -0.410156 2.078125 -0.390625 C 2.160156 -0.378906 2.253906 -0.375 2.359375 -0.375 L 2.390625 -0.375 L 2.390625 0 L 0.34375 0 L 0.34375 -0.375 L 0.453125 -0.375 C 0.546875 -0.375 0.632812 -0.378906 0.71875 -0.390625 C 0.8125 -0.398438 0.890625 -0.425781 0.953125 -0.46875 C 1.023438 -0.507812 1.078125 -0.566406 1.109375 -0.640625 C 1.148438 -0.722656 1.171875 -0.832031 1.171875 -0.96875 L 1.171875 -5.34375 C 1.171875 -5.476562 1.148438 -5.582031 1.109375 -5.65625 C 1.078125 -5.738281 1.023438 -5.800781 0.953125 -5.84375 C 0.890625 -5.882812 0.8125 -5.910156 0.71875 -5.921875 C 0.632812 -5.941406 0.546875 -5.953125 0.453125 -5.953125 L 0.34375 -5.953125 L 0.34375 -6.328125 L 2.359375 -6.328125 L 4.1875 -1.265625 L 6.015625 -6.328125 L 7.96875 -6.328125 L 7.96875 -5.953125 L 7.859375 -5.953125 C 7.753906 -5.953125 7.65625 -5.941406 7.5625 -5.921875 C 7.476562 -5.910156 7.40625 -5.882812 7.34375 -5.84375 C 7.28125 -5.800781 7.226562 -5.738281 7.1875 -5.65625 C 7.15625 -5.570312 7.140625 -5.457031 7.140625 -5.3125 L 7.140625 -1.015625 C 7.140625 -0.867188 7.15625 -0.753906 7.1875 -0.671875 C 7.226562 -0.585938 7.28125 -0.523438 7.34375 -0.484375 C 7.40625 -0.441406 7.476562 -0.410156 7.5625 -0.390625 C 7.65625 -0.378906 7.753906 -0.375 7.859375 -0.375 L 7.96875 -0.375 L 7.96875 0 Z M 5.609375 0 "/></g></g></g><g fill="#ffffff" fill-opacity="1"><g transform="translate(140.143799, 259.43178)"><g><path d="M 0.34375 0 L 0.34375 -0.375 L 0.453125 -0.375 C 0.546875 -0.375 0.632812 -0.378906 0.71875 -0.390625 C 0.8125 -0.410156 0.890625 -0.441406 0.953125 -0.484375 C 1.023438 -0.523438 1.078125 -0.585938 1.109375 -0.671875 C 1.148438 -0.753906 1.171875 -0.867188 1.171875 -1.015625 L 1.171875 -5.34375 C 1.171875 -5.476562 1.148438 -5.582031 1.109375 -5.65625 C 1.078125 -5.738281 1.023438 -5.800781 0.953125 -5.84375 C 0.890625 -5.882812 0.8125 -5.910156 0.71875 -5.921875 C 0.632812 -5.941406 0.546875 -5.953125 0.453125 -5.953125 L 0.34375 -5.953125 L 0.34375 -6.328125 L 2.828125 -6.328125 C 3.203125 -6.328125 3.523438 -6.28125 3.796875 -6.1875 C 4.066406 -6.101562 4.289062 -5.984375 4.46875 -5.828125 C 4.644531 -5.671875 4.773438 -5.476562 4.859375 -5.25 C 4.953125 -5.019531 5 -4.757812 5 -4.46875 C 5 -4.207031 4.957031 -3.957031 4.875 -3.71875 C 4.800781 -3.476562 4.671875 -3.265625 4.484375 -3.078125 C 4.296875 -2.890625 4.046875 -2.738281 3.734375 -2.625 C 3.429688 -2.519531 3.0625 -2.46875 2.625 -2.46875 L 2.078125 -2.46875 L 2.078125 -0.96875 C 2.078125 -0.832031 2.09375 -0.722656 2.125 -0.640625 C 2.164062 -0.566406 2.21875 -0.507812 2.28125 -0.46875 C 2.351562 -0.425781 2.429688 -0.398438 2.515625 -0.390625 C 2.609375 -0.378906 2.703125 -0.375 2.796875 -0.375 L 3.09375 -0.375 L 3.09375 0 Z M 2.078125 -2.875 L 2.546875 -2.875 C 2.816406 -2.875 3.046875 -2.898438 3.234375 -2.953125 C 3.421875 -3.015625 3.570312 -3.109375 3.6875 -3.234375 C 3.8125 -3.359375 3.898438 -3.519531 3.953125 -3.71875 C 4.015625 -3.914062 4.046875 -4.15625 4.046875 -4.4375 C 4.046875 -4.6875 4.019531 -4.898438 3.96875 -5.078125 C 3.925781 -5.265625 3.847656 -5.414062 3.734375 -5.53125 C 3.628906 -5.65625 3.488281 -5.75 3.3125 -5.8125 C 3.132812 -5.875 2.921875 -5.90625 2.671875 -5.90625 L 2.078125 -5.90625 Z M 2.078125 -2.875 "/></g></g></g><g fill="#ffffff" fill-opacity="1"><g transform="translate(148.873767, 259.43178)"><g><path d="M 6.0625 -3.171875 C 6.0625 -2.679688 6 -2.234375 5.875 -1.828125 C 5.757812 -1.429688 5.582031 -1.085938 5.34375 -0.796875 C 5.113281 -0.515625 4.820312 -0.296875 4.46875 -0.140625 C 4.125 0.015625 3.726562 0.09375 3.28125 0.09375 C 2.8125 0.09375 2.398438 0.015625 2.046875 -0.140625 C 1.703125 -0.296875 1.414062 -0.515625 1.1875 -0.796875 C 0.957031 -1.085938 0.785156 -1.429688 0.671875 -1.828125 C 0.554688 -2.234375 0.5 -2.679688 0.5 -3.171875 C 0.5 -3.671875 0.554688 -4.117188 0.671875 -4.515625 C 0.785156 -4.910156 0.957031 -5.25 1.1875 -5.53125 C 1.414062 -5.820312 1.707031 -6.039062 2.0625 -6.1875 C 2.414062 -6.34375 2.828125 -6.421875 3.296875 -6.421875 C 3.742188 -6.421875 4.140625 -6.34375 4.484375 -6.1875 C 4.828125 -6.039062 5.113281 -5.820312 5.34375 -5.53125 C 5.582031 -5.25 5.757812 -4.90625 5.875 -4.5 C 6 -4.101562 6.0625 -3.660156 6.0625 -3.171875 Z M 1.484375 -3.171875 C 1.484375 -2.734375 1.515625 -2.34375 1.578125 -2 C 1.640625 -1.65625 1.742188 -1.363281 1.890625 -1.125 C 2.035156 -0.882812 2.222656 -0.703125 2.453125 -0.578125 C 2.679688 -0.453125 2.957031 -0.390625 3.28125 -0.390625 C 3.613281 -0.390625 3.894531 -0.453125 4.125 -0.578125 C 4.351562 -0.703125 4.535156 -0.882812 4.671875 -1.125 C 4.816406 -1.363281 4.921875 -1.65625 4.984375 -2 C 5.054688 -2.34375 5.09375 -2.734375 5.09375 -3.171875 C 5.09375 -3.609375 5.054688 -4 4.984375 -4.34375 C 4.921875 -4.6875 4.816406 -4.976562 4.671875 -5.21875 C 4.535156 -5.457031 4.351562 -5.632812 4.125 -5.75 C 3.90625 -5.875 3.628906 -5.9375 3.296875 -5.9375 C 2.960938 -5.9375 2.679688 -5.875 2.453125 -5.75 C 2.222656 -5.632812 2.035156 -5.457031 1.890625 -5.21875 C 1.742188 -4.976562 1.640625 -4.6875 1.578125 -4.34375 C 1.515625 -4 1.484375 -3.609375 1.484375 -3.171875 Z M 1.484375 -3.171875 "/></g></g></g><g fill="#ffffff" fill-opacity="1"><g transform="translate(158.826329, 259.43178)"><g><path d="M 5.109375 -6.265625 L 6.21875 -2.421875 C 6.300781 -2.128906 6.375 -1.847656 6.4375 -1.578125 C 6.5 -1.304688 6.550781 -1.070312 6.59375 -0.875 C 6.632812 -1.082031 6.679688 -1.300781 6.734375 -1.53125 C 6.796875 -1.769531 6.867188 -2.035156 6.953125 -2.328125 L 7.71875 -5.0625 C 7.726562 -5.09375 7.738281 -5.128906 7.75 -5.171875 C 7.769531 -5.210938 7.78125 -5.253906 7.78125 -5.296875 C 7.789062 -5.347656 7.800781 -5.390625 7.8125 -5.421875 C 7.820312 -5.460938 7.828125 -5.492188 7.828125 -5.515625 C 7.828125 -5.671875 7.773438 -5.78125 7.671875 -5.84375 C 7.578125 -5.914062 7.429688 -5.953125 7.234375 -5.953125 L 7.03125 -5.953125 L 7.03125 -6.328125 L 9.203125 -6.328125 L 9.203125 -5.953125 L 9.03125 -5.953125 C 8.9375 -5.953125 8.859375 -5.941406 8.796875 -5.921875 C 8.734375 -5.910156 8.675781 -5.878906 8.625 -5.828125 C 8.570312 -5.773438 8.523438 -5.703125 8.484375 -5.609375 C 8.441406 -5.523438 8.398438 -5.410156 8.359375 -5.265625 L 6.859375 0 L 6.0625 0 L 4.609375 -4.96875 L 3.265625 0 L 2.4375 0 L 0.828125 -5.484375 C 0.796875 -5.578125 0.757812 -5.65625 0.71875 -5.71875 C 0.6875 -5.78125 0.644531 -5.828125 0.59375 -5.859375 C 0.539062 -5.890625 0.484375 -5.910156 0.421875 -5.921875 C 0.359375 -5.941406 0.28125 -5.953125 0.1875 -5.953125 L 0.078125 -5.953125 L 0.078125 -6.328125 L 2.515625 -6.328125 L 2.515625 -5.953125 L 2.3125 -5.953125 C 2.132812 -5.953125 2 -5.914062 1.90625 -5.84375 C 1.820312 -5.78125 1.78125 -5.675781 1.78125 -5.53125 C 1.78125 -5.476562 1.785156 -5.425781 1.796875 -5.375 C 1.816406 -5.320312 1.832031 -5.265625 1.84375 -5.203125 L 2.671875 -2.359375 C 2.742188 -2.097656 2.8125 -1.835938 2.875 -1.578125 C 2.9375 -1.316406 2.992188 -1.082031 3.046875 -0.875 C 3.085938 -1.101562 3.140625 -1.351562 3.203125 -1.625 C 3.265625 -1.894531 3.332031 -2.175781 3.40625 -2.46875 L 4.46875 -6.265625 Z M 5.109375 -6.265625 "/></g></g></g><g fill="#ffffff" fill-opacity="1"><g transform="translate(171.474659, 259.43178)"><g><path d="M 2.078125 -0.4375 L 3.78125 -0.4375 C 3.925781 -0.4375 4.046875 -0.457031 4.140625 -0.5 C 4.242188 -0.539062 4.328125 -0.59375 4.390625 -0.65625 C 4.453125 -0.71875 4.503906 -0.789062 4.546875 -0.875 C 4.585938 -0.96875 4.613281 -1.066406 4.625 -1.171875 L 4.6875 -1.546875 L 5.140625 -1.546875 L 5.09375 0 L 0.34375 0 L 0.34375 -0.375 L 0.453125 -0.375 C 0.546875 -0.375 0.632812 -0.378906 0.71875 -0.390625 C 0.8125 -0.398438 0.890625 -0.425781 0.953125 -0.46875 C 1.023438 -0.507812 1.078125 -0.566406 1.109375 -0.640625 C 1.148438 -0.722656 1.171875 -0.832031 1.171875 -0.96875 L 1.171875 -5.3125 C 1.171875 -5.457031 1.148438 -5.570312 1.109375 -5.65625 C 1.078125 -5.738281 1.023438 -5.800781 0.953125 -5.84375 C 0.890625 -5.882812 0.8125 -5.910156 0.71875 -5.921875 C 0.632812 -5.941406 0.546875 -5.953125 0.453125 -5.953125 L 0.34375 -5.953125 L 0.34375 -6.328125 L 4.796875 -6.328125 L 4.84375 -4.78125 L 4.390625 -4.78125 L 4.34375 -5.15625 C 4.332031 -5.25 4.304688 -5.335938 4.265625 -5.421875 C 4.234375 -5.515625 4.1875 -5.59375 4.125 -5.65625 C 4.070312 -5.726562 4 -5.785156 3.90625 -5.828125 C 3.8125 -5.867188 3.695312 -5.890625 3.5625 -5.890625 L 2.078125 -5.890625 L 2.078125 -3.53125 L 4.203125 -3.53125 L 4.203125 -3.09375 L 2.078125 -3.09375 Z M 2.078125 -0.4375 "/></g></g></g><g fill="#ffffff" fill-opacity="1"><g transform="translate(180.373104, 259.43178)"><g><path d="M 4.90625 -1.078125 C 5.0625 -0.847656 5.207031 -0.671875 5.34375 -0.546875 C 5.488281 -0.429688 5.65625 -0.375 5.84375 -0.375 L 5.859375 -0.375 L 5.859375 0 L 5.734375 0 C 5.460938 0 5.238281 -0.0078125 5.0625 -0.03125 C 4.882812 -0.0507812 4.734375 -0.0859375 4.609375 -0.140625 C 4.484375 -0.203125 4.375 -0.285156 4.28125 -0.390625 C 4.195312 -0.492188 4.101562 -0.628906 4 -0.796875 L 2.8125 -2.796875 L 2.078125 -2.796875 L 2.078125 -0.96875 C 2.078125 -0.832031 2.09375 -0.722656 2.125 -0.640625 C 2.164062 -0.566406 2.21875 -0.507812 2.28125 -0.46875 C 2.351562 -0.425781 2.429688 -0.398438 2.515625 -0.390625 C 2.609375 -0.378906 2.703125 -0.375 2.796875 -0.375 L 2.921875 -0.375 L 2.921875 0 L 0.34375 0 L 0.34375 -0.375 L 0.453125 -0.375 C 0.546875 -0.375 0.632812 -0.378906 0.71875 -0.390625 C 0.8125 -0.398438 0.890625 -0.425781 0.953125 -0.46875 C 1.023438 -0.507812 1.078125 -0.566406 1.109375 -0.640625 C 1.148438 -0.722656 1.171875 -0.832031 1.171875 -0.96875 L 1.171875 -5.34375 C 1.171875 -5.476562 1.148438 -5.582031 1.109375 -5.65625 C 1.078125 -5.738281 1.023438 -5.800781 0.953125 -5.84375 C 0.890625 -5.882812 0.8125 -5.910156 0.71875 -5.921875 C 0.632812 -5.941406 0.546875 -5.953125 0.453125 -5.953125 L 0.34375 -5.953125 L 0.34375 -6.328125 L 2.71875 -6.328125 C 3.488281 -6.328125 4.0625 -6.179688 4.4375 -5.890625 C 4.8125 -5.609375 5 -5.179688 5 -4.609375 C 5 -4.378906 4.957031 -4.175781 4.875 -4 C 4.800781 -3.820312 4.703125 -3.664062 4.578125 -3.53125 C 4.453125 -3.40625 4.3125 -3.296875 4.15625 -3.203125 C 4 -3.117188 3.84375 -3.050781 3.6875 -3 Z M 2.078125 -3.203125 L 2.6875 -3.203125 C 2.945312 -3.203125 3.164062 -3.226562 3.34375 -3.28125 C 3.519531 -3.34375 3.660156 -3.429688 3.765625 -3.546875 C 3.867188 -3.660156 3.941406 -3.804688 3.984375 -3.984375 C 4.023438 -4.160156 4.046875 -4.363281 4.046875 -4.59375 C 4.046875 -4.820312 4.019531 -5.019531 3.96875 -5.1875 C 3.925781 -5.351562 3.847656 -5.488281 3.734375 -5.59375 C 3.628906 -5.695312 3.488281 -5.773438 3.3125 -5.828125 C 3.132812 -5.878906 2.921875 -5.90625 2.671875 -5.90625 L 2.078125 -5.90625 Z M 2.078125 -3.203125 "/></g></g></g><g fill="#ffffff" fill-opacity="1"><g transform="translate(189.561004, 259.43178)"><g><path d="M 0.34375 0 L 0.34375 -0.375 L 0.453125 -0.375 C 0.546875 -0.375 0.632812 -0.378906 0.71875 -0.390625 C 0.8125 -0.410156 0.890625 -0.441406 0.953125 -0.484375 C 1.023438 -0.523438 1.078125 -0.585938 1.109375 -0.671875 C 1.148438 -0.753906 1.171875 -0.867188 1.171875 -1.015625 L 1.171875 -5.3125 C 1.171875 -5.457031 1.148438 -5.570312 1.109375 -5.65625 C 1.078125 -5.738281 1.023438 -5.800781 0.953125 -5.84375 C 0.890625 -5.882812 0.8125 -5.910156 0.71875 -5.921875 C 0.632812 -5.941406 0.546875 -5.953125 0.453125 -5.953125 L 0.34375 -5.953125 L 0.34375 -6.328125 L 2.921875 -6.328125 L 2.921875 -5.953125 L 2.796875 -5.953125 C 2.703125 -5.953125 2.609375 -5.941406 2.515625 -5.921875 C 2.429688 -5.910156 2.351562 -5.882812 2.28125 -5.84375 C 2.21875 -5.800781 2.164062 -5.738281 2.125 -5.65625 C 2.09375 -5.570312 2.078125 -5.457031 2.078125 -5.3125 L 2.078125 -1.015625 C 2.078125 -0.867188 2.09375 -0.753906 2.125 -0.671875 C 2.164062 -0.585938 2.21875 -0.523438 2.28125 -0.484375 C 2.351562 -0.441406 2.429688 -0.410156 2.515625 -0.390625 C 2.609375 -0.378906 2.703125 -0.375 2.796875 -0.375 L 2.921875 -0.375 L 2.921875 0 Z M 0.34375 0 "/></g></g></g><g fill="#ffffff" fill-opacity="1"><g transform="translate(196.195693, 259.43178)"><g><path d="M 5.046875 0 L 1.71875 -5.109375 L 1.71875 -1.015625 C 1.71875 -0.867188 1.734375 -0.753906 1.765625 -0.671875 C 1.804688 -0.585938 1.859375 -0.523438 1.921875 -0.484375 C 1.992188 -0.441406 2.070312 -0.410156 2.15625 -0.390625 C 2.25 -0.378906 2.34375 -0.375 2.4375 -0.375 L 2.5625 -0.375 L 2.5625 0 L 0.34375 0 L 0.34375 -0.375 L 0.453125 -0.375 C 0.546875 -0.375 0.632812 -0.378906 0.71875 -0.390625 C 0.8125 -0.410156 0.890625 -0.441406 0.953125 -0.484375 C 1.023438 -0.523438 1.078125 -0.585938 1.109375 -0.671875 C 1.148438 -0.753906 1.171875 -0.867188 1.171875 -1.015625 L 1.171875 -5.34375 C 1.171875 -5.476562 1.148438 -5.582031 1.109375 -5.65625 C 1.078125 -5.738281 1.023438 -5.800781 0.953125 -5.84375 C 0.890625 -5.882812 0.8125 -5.910156 0.71875 -5.921875 C 0.632812 -5.941406 0.546875 -5.953125 0.453125 -5.953125 L 0.34375 -5.953125 L 0.34375 -6.328125 L 1.953125 -6.328125 L 5.125 -1.421875 L 5.125 -5.34375 C 5.125 -5.476562 5.101562 -5.582031 5.0625 -5.65625 C 5.03125 -5.738281 4.976562 -5.800781 4.90625 -5.84375 C 4.84375 -5.882812 4.765625 -5.910156 4.671875 -5.921875 C 4.585938 -5.941406 4.5 -5.953125 4.40625 -5.953125 L 4.28125 -5.953125 L 4.28125 -6.328125 L 6.515625 -6.328125 L 6.515625 -5.953125 L 6.390625 -5.953125 C 6.296875 -5.953125 6.203125 -5.941406 6.109375 -5.921875 C 6.023438 -5.910156 5.945312 -5.882812 5.875 -5.84375 C 5.8125 -5.800781 5.757812 -5.738281 5.71875 -5.65625 C 5.6875 -5.570312 5.671875 -5.457031 5.671875 -5.3125 L 5.671875 0 Z M 5.046875 0 "/></g></g></g><g fill="#ffffff" fill-opacity="1"><g transform="translate(206.334024, 259.43178)"><g><path d="M 3.546875 0.09375 C 3.035156 0.09375 2.585938 0.015625 2.203125 -0.140625 C 1.828125 -0.296875 1.507812 -0.515625 1.25 -0.796875 C 1 -1.085938 0.8125 -1.429688 0.6875 -1.828125 C 0.5625 -2.234375 0.5 -2.679688 0.5 -3.171875 C 0.5 -3.648438 0.566406 -4.085938 0.703125 -4.484375 C 0.835938 -4.878906 1.035156 -5.21875 1.296875 -5.5 C 1.554688 -5.789062 1.878906 -6.015625 2.265625 -6.171875 C 2.648438 -6.335938 3.097656 -6.421875 3.609375 -6.421875 C 3.929688 -6.421875 4.210938 -6.394531 4.453125 -6.34375 C 4.703125 -6.289062 4.910156 -6.21875 5.078125 -6.125 C 5.242188 -6.039062 5.363281 -5.9375 5.4375 -5.8125 C 5.519531 -5.6875 5.5625 -5.554688 5.5625 -5.421875 C 5.5625 -5.328125 5.539062 -5.238281 5.5 -5.15625 C 5.457031 -5.082031 5.398438 -5.019531 5.328125 -4.96875 C 5.253906 -4.914062 5.164062 -4.875 5.0625 -4.84375 C 4.96875 -4.8125 4.859375 -4.796875 4.734375 -4.796875 C 4.734375 -4.941406 4.710938 -5.082031 4.671875 -5.21875 C 4.640625 -5.351562 4.578125 -5.472656 4.484375 -5.578125 C 4.390625 -5.679688 4.265625 -5.765625 4.109375 -5.828125 C 3.960938 -5.898438 3.78125 -5.9375 3.5625 -5.9375 C 3.1875 -5.9375 2.867188 -5.875 2.609375 -5.75 C 2.347656 -5.632812 2.132812 -5.457031 1.96875 -5.21875 C 1.800781 -4.988281 1.675781 -4.703125 1.59375 -4.359375 C 1.519531 -4.015625 1.484375 -3.617188 1.484375 -3.171875 C 1.484375 -2.734375 1.519531 -2.34375 1.59375 -2 C 1.675781 -1.65625 1.804688 -1.363281 1.984375 -1.125 C 2.160156 -0.894531 2.390625 -0.71875 2.671875 -0.59375 C 2.953125 -0.476562 3.289062 -0.421875 3.6875 -0.421875 C 3.863281 -0.421875 4.03125 -0.425781 4.1875 -0.4375 C 4.351562 -0.457031 4.492188 -0.484375 4.609375 -0.515625 L 4.609375 -1.953125 C 4.609375 -2.078125 4.585938 -2.179688 4.546875 -2.265625 C 4.515625 -2.347656 4.460938 -2.410156 4.390625 -2.453125 C 4.328125 -2.492188 4.25 -2.519531 4.15625 -2.53125 C 4.070312 -2.539062 3.984375 -2.546875 3.890625 -2.546875 L 3.859375 -2.546875 L 3.859375 -2.921875 L 6.15625 -2.921875 L 6.15625 -2.546875 L 6.125 -2.546875 C 6.039062 -2.546875 5.957031 -2.539062 5.875 -2.53125 C 5.800781 -2.519531 5.738281 -2.488281 5.6875 -2.4375 C 5.632812 -2.394531 5.59375 -2.332031 5.5625 -2.25 C 5.53125 -2.164062 5.515625 -2.050781 5.515625 -1.90625 L 5.515625 -0.3125 C 5.210938 -0.175781 4.90625 -0.0703125 4.59375 0 C 4.28125 0.0625 3.929688 0.09375 3.546875 0.09375 Z M 3.546875 0.09375 "/></g></g></g><g fill="#ffffff" fill-opacity="1"><g transform="translate(216.036016, 259.43178)"><g/></g></g><g fill="#ffffff" fill-opacity="1"><g transform="translate(221.720273, 259.43178)"><g><path d="M 0.34375 0 L 0.34375 -0.375 L 0.453125 -0.375 C 0.546875 -0.375 0.632812 -0.378906 0.71875 -0.390625 C 0.8125 -0.410156 0.890625 -0.441406 0.953125 -0.484375 C 1.023438 -0.523438 1.078125 -0.585938 1.109375 -0.671875 C 1.148438 -0.753906 1.171875 -0.867188 1.171875 -1.015625 L 1.171875 -5.3125 C 1.171875 -5.457031 1.148438 -5.570312 1.109375 -5.65625 C 1.078125 -5.738281 1.023438 -5.800781 0.953125 -5.84375 C 0.890625 -5.882812 0.8125 -5.910156 0.71875 -5.921875 C 0.632812 -5.941406 0.546875 -5.953125 0.453125 -5.953125 L 0.34375 -5.953125 L 0.34375 -6.328125 L 2.921875 -6.328125 L 2.921875 -5.953125 L 2.796875 -5.953125 C 2.703125 -5.953125 2.609375 -5.941406 2.515625 -5.921875 C 2.429688 -5.910156 2.351562 -5.882812 2.28125 -5.84375 C 2.21875 -5.800781 2.164062 -5.738281 2.125 -5.65625 C 2.09375 -5.570312 2.078125 -5.457031 2.078125 -5.3125 L 2.078125 -1.015625 C 2.078125 -0.867188 2.09375 -0.753906 2.125 -0.671875 C 2.164062 -0.585938 2.21875 -0.523438 2.28125 -0.484375 C 2.351562 -0.441406 2.429688 -0.410156 2.515625 -0.390625 C 2.609375 -0.378906 2.703125 -0.375 2.796875 -0.375 L 2.921875 -0.375 L 2.921875 0 Z M 0.34375 0 "/></g></g></g><g fill="#ffffff" fill-opacity="1"><g transform="translate(228.354962, 259.43178)"><g><path d="M 5.046875 0 L 1.71875 -5.109375 L 1.71875 -1.015625 C 1.71875 -0.867188 1.734375 -0.753906 1.765625 -0.671875 C 1.804688 -0.585938 1.859375 -0.523438 1.921875 -0.484375 C 1.992188 -0.441406 2.070312 -0.410156 2.15625 -0.390625 C 2.25 -0.378906 2.34375 -0.375 2.4375 -0.375 L 2.5625 -0.375 L 2.5625 0 L 0.34375 0 L 0.34375 -0.375 L 0.453125 -0.375 C 0.546875 -0.375 0.632812 -0.378906 0.71875 -0.390625 C 0.8125 -0.410156 0.890625 -0.441406 0.953125 -0.484375 C 1.023438 -0.523438 1.078125 -0.585938 1.109375 -0.671875 C 1.148438 -0.753906 1.171875 -0.867188 1.171875 -1.015625 L 1.171875 -5.34375 C 1.171875 -5.476562 1.148438 -5.582031 1.109375 -5.65625 C 1.078125 -5.738281 1.023438 -5.800781 0.953125 -5.84375 C 0.890625 -5.882812 0.8125 -5.910156 0.71875 -5.921875 C 0.632812 -5.941406 0.546875 -5.953125 0.453125 -5.953125 L 0.34375 -5.953125 L 0.34375 -6.328125 L 1.953125 -6.328125 L 5.125 -1.421875 L 5.125 -5.34375 C 5.125 -5.476562 5.101562 -5.582031 5.0625 -5.65625 C 5.03125 -5.738281 4.976562 -5.800781 4.90625 -5.84375 C 4.84375 -5.882812 4.765625 -5.910156 4.671875 -5.921875 C 4.585938 -5.941406 4.5 -5.953125 4.40625 -5.953125 L 4.28125 -5.953125 L 4.28125 -6.328125 L 6.515625 -6.328125 L 6.515625 -5.953125 L 6.390625 -5.953125 C 6.296875 -5.953125 6.203125 -5.941406 6.109375 -5.921875 C 6.023438 -5.910156 5.945312 -5.882812 5.875 -5.84375 C 5.8125 -5.800781 5.757812 -5.738281 5.71875 -5.65625 C 5.6875 -5.570312 5.671875 -5.457031 5.671875 -5.3125 L 5.671875 0 Z M 5.046875 0 "/></g></g></g><g fill="#ffffff" fill-opacity="1"><g transform="translate(238.493293, 259.43178)"><g><path d="M 5.046875 0 L 1.71875 -5.109375 L 1.71875 -1.015625 C 1.71875 -0.867188 1.734375 -0.753906 1.765625 -0.671875 C 1.804688 -0.585938 1.859375 -0.523438 1.921875 -0.484375 C 1.992188 -0.441406 2.070312 -0.410156 2.15625 -0.390625 C 2.25 -0.378906 2.34375 -0.375 2.4375 -0.375 L 2.5625 -0.375 L 2.5625 0 L 0.34375 0 L 0.34375 -0.375 L 0.453125 -0.375 C 0.546875 -0.375 0.632812 -0.378906 0.71875 -0.390625 C 0.8125 -0.410156 0.890625 -0.441406 0.953125 -0.484375 C 1.023438 -0.523438 1.078125 -0.585938 1.109375 -0.671875 C 1.148438 -0.753906 1.171875 -0.867188 1.171875 -1.015625 L 1.171875 -5.34375 C 1.171875 -5.476562 1.148438 -5.582031 1.109375 -5.65625 C 1.078125 -5.738281 1.023438 -5.800781 0.953125 -5.84375 C 0.890625 -5.882812 0.8125 -5.910156 0.71875 -5.921875 C 0.632812 -5.941406 0.546875 -5.953125 0.453125 -5.953125 L 0.34375 -5.953125 L 0.34375 -6.328125 L 1.953125 -6.328125 L 5.125 -1.421875 L 5.125 -5.34375 C 5.125 -5.476562 5.101562 -5.582031 5.0625 -5.65625 C 5.03125 -5.738281 4.976562 -5.800781 4.90625 -5.84375 C 4.84375 -5.882812 4.765625 -5.910156 4.671875 -5.921875 C 4.585938 -5.941406 4.5 -5.953125 4.40625 -5.953125 L 4.28125 -5.953125 L 4.28125 -6.328125 L 6.515625 -6.328125 L 6.515625 -5.953125 L 6.390625 -5.953125 C 6.296875 -5.953125 6.203125 -5.941406 6.109375 -5.921875 C 6.023438 -5.910156 5.945312 -5.882812 5.875 -5.84375 C 5.8125 -5.800781 5.757812 -5.738281 5.71875 -5.65625 C 5.6875 -5.570312 5.671875 -5.457031 5.671875 -5.3125 L 5.671875 0 Z M 5.046875 0 "/></g></g></g><g fill="#ffffff" fill-opacity="1"><g transform="translate(248.631625, 259.43178)"><g><path d="M 6.0625 -3.171875 C 6.0625 -2.679688 6 -2.234375 5.875 -1.828125 C 5.757812 -1.429688 5.582031 -1.085938 5.34375 -0.796875 C 5.113281 -0.515625 4.820312 -0.296875 4.46875 -0.140625 C 4.125 0.015625 3.726562 0.09375 3.28125 0.09375 C 2.8125 0.09375 2.398438 0.015625 2.046875 -0.140625 C 1.703125 -0.296875 1.414062 -0.515625 1.1875 -0.796875 C 0.957031 -1.085938 0.785156 -1.429688 0.671875 -1.828125 C 0.554688 -2.234375 0.5 -2.679688 0.5 -3.171875 C 0.5 -3.671875 0.554688 -4.117188 0.671875 -4.515625 C 0.785156 -4.910156 0.957031 -5.25 1.1875 -5.53125 C 1.414062 -5.820312 1.707031 -6.039062 2.0625 -6.1875 C 2.414062 -6.34375 2.828125 -6.421875 3.296875 -6.421875 C 3.742188 -6.421875 4.140625 -6.34375 4.484375 -6.1875 C 4.828125 -6.039062 5.113281 -5.820312 5.34375 -5.53125 C 5.582031 -5.25 5.757812 -4.90625 5.875 -4.5 C 6 -4.101562 6.0625 -3.660156 6.0625 -3.171875 Z M 1.484375 -3.171875 C 1.484375 -2.734375 1.515625 -2.34375 1.578125 -2 C 1.640625 -1.65625 1.742188 -1.363281 1.890625 -1.125 C 2.035156 -0.882812 2.222656 -0.703125 2.453125 -0.578125 C 2.679688 -0.453125 2.957031 -0.390625 3.28125 -0.390625 C 3.613281 -0.390625 3.894531 -0.453125 4.125 -0.578125 C 4.351562 -0.703125 4.535156 -0.882812 4.671875 -1.125 C 4.816406 -1.363281 4.921875 -1.65625 4.984375 -2 C 5.054688 -2.34375 5.09375 -2.734375 5.09375 -3.171875 C 5.09375 -3.609375 5.054688 -4 4.984375 -4.34375 C 4.921875 -4.6875 4.816406 -4.976562 4.671875 -5.21875 C 4.535156 -5.457031 4.351562 -5.632812 4.125 -5.75 C 3.90625 -5.875 3.628906 -5.9375 3.296875 -5.9375 C 2.960938 -5.9375 2.679688 -5.875 2.453125 -5.75 C 2.222656 -5.632812 2.035156 -5.457031 1.890625 -5.21875 C 1.742188 -4.976562 1.640625 -4.6875 1.578125 -4.34375 C 1.515625 -4 1.484375 -3.609375 1.484375 -3.171875 Z M 1.484375 -3.171875 "/></g></g></g><g fill="#ffffff" fill-opacity="1"><g transform="translate(258.584185, 259.43178)"><g><path d="M 2.65625 0 L 0.75 -5.484375 C 0.71875 -5.578125 0.679688 -5.65625 0.640625 -5.71875 C 0.597656 -5.78125 0.550781 -5.828125 0.5 -5.859375 C 0.457031 -5.890625 0.40625 -5.910156 0.34375 -5.921875 C 0.28125 -5.941406 0.203125 -5.953125 0.109375 -5.953125 L 0 -5.953125 L 0 -6.328125 L 2.4375 -6.328125 L 2.4375 -5.953125 L 2.234375 -5.953125 C 2.054688 -5.953125 1.921875 -5.914062 1.828125 -5.84375 C 1.742188 -5.78125 1.703125 -5.675781 1.703125 -5.53125 C 1.703125 -5.476562 1.707031 -5.425781 1.71875 -5.375 C 1.726562 -5.320312 1.75 -5.265625 1.78125 -5.203125 L 2.75 -2.328125 C 2.832031 -2.054688 2.90625 -1.796875 2.96875 -1.546875 C 3.039062 -1.304688 3.097656 -1.082031 3.140625 -0.875 C 3.191406 -1.082031 3.25 -1.304688 3.3125 -1.546875 C 3.375 -1.785156 3.453125 -2.046875 3.546875 -2.328125 L 4.53125 -5.140625 C 4.550781 -5.210938 4.566406 -5.28125 4.578125 -5.34375 C 4.597656 -5.414062 4.609375 -5.472656 4.609375 -5.515625 C 4.609375 -5.671875 4.554688 -5.78125 4.453125 -5.84375 C 4.359375 -5.914062 4.210938 -5.953125 4.015625 -5.953125 L 3.8125 -5.953125 L 3.8125 -6.328125 L 5.984375 -6.328125 L 5.984375 -5.953125 L 5.8125 -5.953125 C 5.726562 -5.953125 5.65625 -5.941406 5.59375 -5.921875 C 5.53125 -5.910156 5.472656 -5.878906 5.421875 -5.828125 C 5.367188 -5.773438 5.320312 -5.703125 5.28125 -5.609375 C 5.238281 -5.523438 5.191406 -5.410156 5.140625 -5.265625 L 3.3125 0 Z M 2.65625 0 "/></g></g></g><g fill="#ffffff" fill-opacity="1"><g transform="translate(267.940565, 259.43178)"><g><path d="M 1.796875 -2.109375 L 1.453125 -1.1875 C 1.429688 -1.113281 1.410156 -1.039062 1.390625 -0.96875 C 1.378906 -0.90625 1.375 -0.847656 1.375 -0.796875 C 1.375 -0.648438 1.421875 -0.539062 1.515625 -0.46875 C 1.609375 -0.40625 1.753906 -0.375 1.953125 -0.375 L 2.15625 -0.375 L 2.15625 0 L 0 0 L 0 -0.375 L 0.171875 -0.375 C 0.253906 -0.375 0.328125 -0.378906 0.390625 -0.390625 C 0.453125 -0.410156 0.503906 -0.445312 0.546875 -0.5 C 0.597656 -0.550781 0.644531 -0.625 0.6875 -0.71875 C 0.738281 -0.8125 0.789062 -0.925781 0.84375 -1.0625 L 2.8125 -6.328125 L 3.5 -6.328125 L 5.5 -0.84375 C 5.53125 -0.75 5.5625 -0.671875 5.59375 -0.609375 C 5.632812 -0.546875 5.679688 -0.5 5.734375 -0.46875 C 5.785156 -0.4375 5.84375 -0.410156 5.90625 -0.390625 C 5.96875 -0.378906 6.039062 -0.375 6.125 -0.375 L 6.25 -0.375 L 6.25 0 L 3.8125 0 L 3.8125 -0.375 L 4.015625 -0.375 C 4.367188 -0.375 4.546875 -0.515625 4.546875 -0.796875 C 4.546875 -0.847656 4.535156 -0.898438 4.515625 -0.953125 C 4.503906 -1.003906 4.488281 -1.0625 4.46875 -1.125 L 4.125 -2.109375 Z M 3.40625 -4.109375 C 3.3125 -4.367188 3.226562 -4.613281 3.15625 -4.84375 C 3.082031 -5.070312 3.019531 -5.296875 2.96875 -5.515625 C 2.945312 -5.398438 2.921875 -5.289062 2.890625 -5.1875 C 2.867188 -5.09375 2.84375 -4.992188 2.8125 -4.890625 C 2.78125 -4.785156 2.742188 -4.675781 2.703125 -4.5625 C 2.660156 -4.457031 2.613281 -4.332031 2.5625 -4.1875 L 1.953125 -2.5625 L 3.953125 -2.5625 Z M 3.40625 -4.109375 "/></g></g></g><g fill="#ffffff" fill-opacity="1"><g transform="translate(277.564794, 259.43178)"><g><path d="M 3.15625 -1.015625 C 3.15625 -0.867188 3.171875 -0.753906 3.203125 -0.671875 C 3.242188 -0.585938 3.296875 -0.523438 3.359375 -0.484375 C 3.429688 -0.441406 3.507812 -0.410156 3.59375 -0.390625 C 3.6875 -0.378906 3.78125 -0.375 3.875 -0.375 L 4.078125 -0.375 L 4.078125 0 L 1.328125 0 L 1.328125 -0.375 L 1.53125 -0.375 C 1.625 -0.375 1.710938 -0.378906 1.796875 -0.390625 C 1.890625 -0.398438 1.96875 -0.425781 2.03125 -0.46875 C 2.101562 -0.507812 2.160156 -0.566406 2.203125 -0.640625 C 2.242188 -0.722656 2.265625 -0.832031 2.265625 -0.96875 L 2.265625 -5.890625 L 1.40625 -5.890625 C 1.28125 -5.890625 1.171875 -5.867188 1.078125 -5.828125 C 0.992188 -5.785156 0.921875 -5.726562 0.859375 -5.65625 C 0.804688 -5.59375 0.765625 -5.515625 0.734375 -5.421875 C 0.710938 -5.335938 0.695312 -5.25 0.6875 -5.15625 L 0.640625 -4.78125 L 0.171875 -4.78125 L 0.21875 -6.328125 L 5.203125 -6.328125 L 5.25 -4.78125 L 4.796875 -4.78125 L 4.75 -5.15625 C 4.738281 -5.25 4.71875 -5.335938 4.6875 -5.421875 C 4.65625 -5.515625 4.613281 -5.59375 4.5625 -5.65625 C 4.507812 -5.726562 4.4375 -5.785156 4.34375 -5.828125 C 4.257812 -5.867188 4.148438 -5.890625 4.015625 -5.890625 L 3.15625 -5.890625 Z M 3.15625 -1.015625 "/></g></g></g><g fill="#ffffff" fill-opacity="1"><g transform="translate(286.372521, 259.43178)"><g><path d="M 0.34375 0 L 0.34375 -0.375 L 0.453125 -0.375 C 0.546875 -0.375 0.632812 -0.378906 0.71875 -0.390625 C 0.8125 -0.410156 0.890625 -0.441406 0.953125 -0.484375 C 1.023438 -0.523438 1.078125 -0.585938 1.109375 -0.671875 C 1.148438 -0.753906 1.171875 -0.867188 1.171875 -1.015625 L 1.171875 -5.3125 C 1.171875 -5.457031 1.148438 -5.570312 1.109375 -5.65625 C 1.078125 -5.738281 1.023438 -5.800781 0.953125 -5.84375 C 0.890625 -5.882812 0.8125 -5.910156 0.71875 -5.921875 C 0.632812 -5.941406 0.546875 -5.953125 0.453125 -5.953125 L 0.34375 -5.953125 L 0.34375 -6.328125 L 2.921875 -6.328125 L 2.921875 -5.953125 L 2.796875 -5.953125 C 2.703125 -5.953125 2.609375 -5.941406 2.515625 -5.921875 C 2.429688 -5.910156 2.351562 -5.882812 2.28125 -5.84375 C 2.21875 -5.800781 2.164062 -5.738281 2.125 -5.65625 C 2.09375 -5.570312 2.078125 -5.457031 2.078125 -5.3125 L 2.078125 -1.015625 C 2.078125 -0.867188 2.09375 -0.753906 2.125 -0.671875 C 2.164062 -0.585938 2.21875 -0.523438 2.28125 -0.484375 C 2.351562 -0.441406 2.429688 -0.410156 2.515625 -0.390625 C 2.609375 -0.378906 2.703125 -0.375 2.796875 -0.375 L 2.921875 -0.375 L 2.921875 0 Z M 0.34375 0 "/></g></g></g><g fill="#ffffff" fill-opacity="1"><g transform="translate(293.00721, 259.43178)"><g><path d="M 6.0625 -3.171875 C 6.0625 -2.679688 6 -2.234375 5.875 -1.828125 C 5.757812 -1.429688 5.582031 -1.085938 5.34375 -0.796875 C 5.113281 -0.515625 4.820312 -0.296875 4.46875 -0.140625 C 4.125 0.015625 3.726562 0.09375 3.28125 0.09375 C 2.8125 0.09375 2.398438 0.015625 2.046875 -0.140625 C 1.703125 -0.296875 1.414062 -0.515625 1.1875 -0.796875 C 0.957031 -1.085938 0.785156 -1.429688 0.671875 -1.828125 C 0.554688 -2.234375 0.5 -2.679688 0.5 -3.171875 C 0.5 -3.671875 0.554688 -4.117188 0.671875 -4.515625 C 0.785156 -4.910156 0.957031 -5.25 1.1875 -5.53125 C 1.414062 -5.820312 1.707031 -6.039062 2.0625 -6.1875 C 2.414062 -6.34375 2.828125 -6.421875 3.296875 -6.421875 C 3.742188 -6.421875 4.140625 -6.34375 4.484375 -6.1875 C 4.828125 -6.039062 5.113281 -5.820312 5.34375 -5.53125 C 5.582031 -5.25 5.757812 -4.90625 5.875 -4.5 C 6 -4.101562 6.0625 -3.660156 6.0625 -3.171875 Z M 1.484375 -3.171875 C 1.484375 -2.734375 1.515625 -2.34375 1.578125 -2 C 1.640625 -1.65625 1.742188 -1.363281 1.890625 -1.125 C 2.035156 -0.882812 2.222656 -0.703125 2.453125 -0.578125 C 2.679688 -0.453125 2.957031 -0.390625 3.28125 -0.390625 C 3.613281 -0.390625 3.894531 -0.453125 4.125 -0.578125 C 4.351562 -0.703125 4.535156 -0.882812 4.671875 -1.125 C 4.816406 -1.363281 4.921875 -1.65625 4.984375 -2 C 5.054688 -2.34375 5.09375 -2.734375 5.09375 -3.171875 C 5.09375 -3.609375 5.054688 -4 4.984375 -4.34375 C 4.921875 -4.6875 4.816406 -4.976562 4.671875 -5.21875 C 4.535156 -5.457031 4.351562 -5.632812 4.125 -5.75 C 3.90625 -5.875 3.628906 -5.9375 3.296875 -5.9375 C 2.960938 -5.9375 2.679688 -5.875 2.453125 -5.75 C 2.222656 -5.632812 2.035156 -5.457031 1.890625 -5.21875 C 1.742188 -4.976562 1.640625 -4.6875 1.578125 -4.34375 C 1.515625 -4 1.484375 -3.609375 1.484375 -3.171875 Z M 1.484375 -3.171875 "/></g></g></g><g fill="#ffffff" fill-opacity="1"><g transform="translate(302.959769, 259.43178)"><g><path d="M 5.046875 0 L 1.71875 -5.109375 L 1.71875 -1.015625 C 1.71875 -0.867188 1.734375 -0.753906 1.765625 -0.671875 C 1.804688 -0.585938 1.859375 -0.523438 1.921875 -0.484375 C 1.992188 -0.441406 2.070312 -0.410156 2.15625 -0.390625 C 2.25 -0.378906 2.34375 -0.375 2.4375 -0.375 L 2.5625 -0.375 L 2.5625 0 L 0.34375 0 L 0.34375 -0.375 L 0.453125 -0.375 C 0.546875 -0.375 0.632812 -0.378906 0.71875 -0.390625 C 0.8125 -0.410156 0.890625 -0.441406 0.953125 -0.484375 C 1.023438 -0.523438 1.078125 -0.585938 1.109375 -0.671875 C 1.148438 -0.753906 1.171875 -0.867188 1.171875 -1.015625 L 1.171875 -5.34375 C 1.171875 -5.476562 1.148438 -5.582031 1.109375 -5.65625 C 1.078125 -5.738281 1.023438 -5.800781 0.953125 -5.84375 C 0.890625 -5.882812 0.8125 -5.910156 0.71875 -5.921875 C 0.632812 -5.941406 0.546875 -5.953125 0.453125 -5.953125 L 0.34375 -5.953125 L 0.34375 -6.328125 L 1.953125 -6.328125 L 5.125 -1.421875 L 5.125 -5.34375 C 5.125 -5.476562 5.101562 -5.582031 5.0625 -5.65625 C 5.03125 -5.738281 4.976562 -5.800781 4.90625 -5.84375 C 4.84375 -5.882812 4.765625 -5.910156 4.671875 -5.921875 C 4.585938 -5.941406 4.5 -5.953125 4.40625 -5.953125 L 4.28125 -5.953125 L 4.28125 -6.328125 L 6.515625 -6.328125 L 6.515625 -5.953125 L 6.390625 -5.953125 C 6.296875 -5.953125 6.203125 -5.941406 6.109375 -5.921875 C 6.023438 -5.910156 5.945312 -5.882812 5.875 -5.84375 C 5.8125 -5.800781 5.757812 -5.738281 5.71875 -5.65625 C 5.6875 -5.570312 5.671875 -5.457031 5.671875 -5.3125 L 5.671875 0 Z M 5.046875 0 "/></g></g></g></svg>